<svg viewBox="0 0 140 70" fill="none" xmlns="http://www.w3.org/2000/svg"><path fill-rule="evenodd" clip-rule="evenodd" d="M72.333 0v70H140V0H72.333zM0 0v70h67.667V0H0z" fill="#0055A6"/><path fill-rule="evenodd" clip-rule="evenodd" d="M136.5 3.5v63H75.833v-63H136.5zM36.66 49.545c-.745-.935-1.122-2.162-1.122-3.646 0-1.523.36-2.749 1.07-3.645.776-.98 1.917-1.478 3.394-1.478h.113v-2.54H40c-2.304 0-4.082.741-5.284 2.203-1.095 1.324-1.65 3.166-1.65 5.48 0 2.235.602 4.073 1.79 5.462 1.249 1.46 2.99 2.203 5.178 2.203h.114v-2.541h-.114c-1.442 0-2.578-.504-3.375-1.498zm-8.775 0c-.746-.935-1.124-2.16-1.124-3.646 0-1.523.36-2.749 1.071-3.645.775-.98 1.916-1.478 3.393-1.478h.113v-2.54h-.113c-2.305 0-4.083.741-5.285 2.203-1.095 1.324-1.65 3.166-1.65 5.48 0 2.235.603 4.073 1.79 5.462 1.25 1.46 2.992 2.203 5.18 2.203h.113v-2.541h-.113c-1.442 0-2.579-.504-3.376-1.498zm8.065-24.746v7.073h2.62V17.228h-2.62v5.1h-1.426c-.588 0-1.027-.137-1.304-.409-.201-.192-.298-.449-.298-.786v-3.905h-2.62v4.181c0 .963.37 1.779 1.1 2.425.722.64 1.606.965 2.632.965h1.916zm25.067 13.089l-.185.198-5.235 5.622v-5.123H53.31v14.561h2.288v-5.981l3.32-3.616.332 9.597h2.334l-.566-15.258zm-17.141-6.016h2.62V19.663h2.208v-2.434h-7v2.434h2.172v12.21zm6.034 6.214l-5.235 5.622v-5.123h-2.289v14.561h2.29v-5.981l3.318-3.616.332 9.597h2.333l-.563-15.26-.186.2zm4.712-18.423h.949c.675 0 1.14.208 1.42.637.227.357.388 1.046.49 1.991H54.56l.063-2.628zm-.11 5.062l3.27.001.736 7.147h2.639l-1.209-10.706c.001-1.404-.42-2.463-1.252-3.13-.661-.536-1.568-.809-2.694-.809h-3.881l-.482 14.644h2.62l.254-7.147zM8.848 19.663h3.244v12.21h2.62V17.228H6.228v14.644h2.62V19.663zm1.225 26.872c-.188.373-.407.56-.651.56-.237 0-.436-.161-.608-.495-.183-.353-.275-.87-.275-1.539v-4.285h.095c.542 0 .955.308 1.264.94.317.65.478 1.69.478 3.093-.001.746-.102 1.327-.303 1.726zM8.64 38.607H6.211v14.53h2.327v-4.223c.45.407.941.65 1.479.65.775 0 1.419-.422 1.917-1.251.558-.932.839-2.313.839-4.107 0-1.246-.227-2.365-.672-3.32-.703-1.511-1.868-2.279-3.462-2.279zm15.587-10.316c-.34.948-.822 1.409-1.467 1.409-.618 0-1.085-.467-1.427-1.428-.357-1.005-.537-2.279-.537-3.787 0-1.548.177-2.822.528-3.787.334-.923.804-1.371 1.436-1.371.71 0 1.216.454 1.545 1.387.306.86.46 2.114.46 3.729 0 1.56-.181 2.855-.538 3.848zm2.023 1.655c.777-1.38 1.171-3.232 1.171-5.503 0-2.245-.408-4.084-1.21-5.465-.822-1.41-1.984-2.123-3.455-2.123-1.396 0-2.506.718-3.3 2.136-.777 1.384-1.171 3.225-1.171 5.47 0 2.326.377 4.203 1.121 5.58.76 1.412 1.888 2.129 3.35 2.129 1.485 0 2.66-.747 3.494-2.224zm-6.56 19.691c-.307.958-.759 1.443-1.34 1.443-.558 0-.997-.492-1.305-1.463-.32-1.011-.483-2.293-.483-3.813 0-1.557.16-2.84.474-3.811.3-.932.743-1.405 1.313-1.405.648 0 1.11.467 1.41 1.425.274.866.413 2.127.413 3.752 0 1.57-.162 2.872-.482 3.872zm1.73-9.303c-.73-1.392-1.76-2.099-3.067-2.099-1.24 0-2.225.71-2.93 2.113-.692 1.377-1.044 3.206-1.044 5.437 0 2.31.337 4.179.999 5.548.674 1.395 1.675 2.102 2.973 2.102 1.319 0 2.363-.74 3.104-2.202.692-1.368 1.043-3.208 1.043-5.468.001-2.233-.362-4.06-1.078-5.431z" fill="#fff"/><path fill-rule="evenodd" clip-rule="evenodd" d="M92.678 22.933c.501 1.142 1.326 2.311 3.57 3.889.502.353 1.057 1.088.634 2.12-.423 1.034-1.217 2.503-.74 3.072.476.573 2.166.872 3.543.3 0 0 .29.898.793 1.468 0 0-.237.49-1.03.246 0 0 .29.734-.106 1.523 0 0-.927-.163-1.323-1.035 0 0-.371.681-1.11.924 0 0-.609-.325-.476-1.576 0 0-.45 1.115-1.825 1.304 0 0-.793-1.032.239-2.42 0 0-.742.68-2.089.355 0 0-.213-.707 1.004-1.688 0 0-1.377-.053-1.904-1.25 0 0 .58-.733 2.01-.57 0 0-1.323-.3-1.614-1.932 0 0 .952-.625 2.46.38 0 0-.265-.515-.899-1.032-.637-.516-1.402-1.958-1.137-4.078zm5.532 16.402a3.995 3.995 0 01-.46-.81c.236 1.98.321 3.315 1.36 4.595 0 0 .627-.857.222-2.941a1.959 1.959 0 01-.56-.267s.238.846.09 1.698c0 0-.374-.282-.652-2.275zm-1.797-.205a6.191 6.191 0 01-.487-.744c-.088 1.148-.382 4.173.603 5.119 0 0 .675-.508.913-4.918-.142.247-.392.51-.514.653 0 0 .164 1.4-.323 2.387-.002 0-.492-.383-.192-2.497zm-2.347 2.311c.828-1.02 1.077-4.074 1.077-4.074.114-.078.227-.165.344-.26.048-.038.093-.08.137-.123-.002.112.004.227.014.342-.12 1.838-.26 3.733-.818 4.676-.547.925-1.55 1.404-1.55 1.404-.945-1.723.195-4.04 1.148-5.647a3.65 3.65 0 00.357-.167c-.336 1.24-.97 2.713-.709 3.85zm-2.337-5.302c-.007.198.03.357.055.442.01.031.023.077.045.122-.79.8-1.375 1.559-2.545 3.232-1.173 1.674-3.027 1.74-3.027 1.74.178-1.354.537-2.426 1.529-3.579.993-1.155 2.26-2.208 3.195-2.908.24.115.553.186.949.139.029-.004.06-.007.092-.013a1.403 1.403 0 00-.244.492c-.706.417-2.754 1.486-3.586 3.209.001 0 1.298-.417 3.537-2.876zm-1.471-1.687l.078-.143c.025-.045.052-.09.082-.131-.76.305-3.477 1.359-4.355 1.825-.879.47-2.15 1.535-2.841 3.695 0 0 1.832.17 3.345-1.116 1.51-1.29 3.273-3.086 4.026-3.659a1.682 1.682 0 01-.175-.198s-2.047 1.865-4.21 2.669c0 0 .464-.863 1.319-1.491 1.04-.76 1.821-1.017 2.731-1.451zm-1.552-1.272c.028-.075.06-.146.09-.215-.896.19-3.136.463-4.137.778-.999.317-2.81 1.07-3.884 3.175 0 0 1.578.502 4.551-.94 2.973-1.438 3.905-1.735 4.475-1.89a2.092 2.092 0 01-.942-.296c-1.186.542-2.773 1.187-4.348 1.228 0 0 .78-.565 1.593-.917a19.681 19.681 0 012.602-.923zm.075-1.517c.292.142.514.213.895.253-.224.148-.42.333-.58.548-1.048.31-2.835.65-5.78.869-2.949.22-4.52-.34-4.52-.34 1.027-.645 2.664-1.3 3.771-1.52 1.108-.22 4.015-.197 5.289-.374.016.012.17.144.419.3-1.071.099-3.356.21-4.535.822 0 0 2.177.3 5.041-.558zm-.22-1.741c.148-.091.327-.18.545-.265-1.49-.465-3.54-1.206-6.62-1.414-2.261-.153-3.896-.02-4.74.205 0 0 2.059 1.492 4.412 2.02 2.353.527 4.265.192 5.664.204.101-.167.222-.322.36-.46-1.633.01-4.353-.425-5.326-.757 0 .001 2.373-.509 5.705.467zm-.009-1.804c.008.042.181.908 1.156 1.387-2.093-.944-6.221-1.488-8.438-2.435-3-1.28-3.545-2.88-3.545-2.88 2.594-.07 4.692.582 6.309 1.09 1.893.598 4.776 1.704 5.785 2.166a2.201 2.201 0 00-1.142.367c-1.41-.556-2.066-.79-3.345-1.158-1.009-.29-1.757-.348-2.385-.41 0 0 .886.604 2.35 1.086 1.45.475 2.08.555 3.255.787zm-.158-2.354c.084.154.332.519.43.663-3.314-.57-6.957-3.147-8.082-4.743-1.127-1.598-.807-3.983-.807-3.983 1.092.227 3.468 2.333 4.081 2.964.615.633 2.474 2.491 3.758 3.53l.404 1.199a137.258 137.258 0 00-3.225-2.559c-.626-.486-1.566-1.174-2.498-1.503 0 0 .859 1.152 1.552 1.712a17.49 17.49 0 002.284 1.595c.597.335.899.526 2.103 1.125z" fill="#0055A6"/><path fill-rule="evenodd" clip-rule="evenodd" d="M97.738 35.3c.1-.089.186-.179.26-.262.153.199.662.858.913 1.511.193.56.395 1.32.497 1.757.1.434.404 1.337.586 1.65 0 0-.807.104-1.405-.613-.587-.704-.787-1.412-.878-2.14a8.09 8.09 0 01.027-1.903zm-1.273.11c.081.12.187.22.31.297l.107.057.115-.037c.1-.034.192-.073.28-.117.115.336.164.498.193.784.039.378.112.975-.026 1.463-.17.595-.515.957-.706 1.188 0 0-.526-.598-.68-1.091-.157-.516-.214-1.117-.02-1.73a2.45 2.45 0 01.427-.815zm-1.82.055a2.637 2.637 0 001.256-.508c.07.196.175.46.097.832-.08.373-.329.787-.692 1.086-.545.447-1.274.868-2.078.738 0 0-.184-.62 1.418-2.148zm-.608-1.037c.065.553.322.9.343.927-.19.23-.868 1.431-2.286 1.228 0 0-.382-.815.56-1.465.64-.44.944-.53 1.383-.69zm.124-1.024c-.484.12-.99.116-1.473-.01l-.162-.04-.048-.162c-.728.61-1.592.711-1.889 1.262 0 0 .363.693 1.306.576a3.127 3.127 0 002.158-1.22c.021-.1.062-.281.108-.406zm-1.635-.859c.135-.204.228-.521.51-.842a4.916 4.916 0 00-1.92.024c-.87.17-1.759.38-2.203 1.742 0 0 .559.49 1.575.277.859-.181 1.61-.563 2.038-1.2zm-.369-1.478a2.222 2.222 0 01-.564-.778l-.075-.17c-.752-.315-1.54-.479-2.309-.184-.767.297-.973.639-1.166.933 0 0 .851.733 1.832.761.983.032 1.888-.259 2.282-.562zm.228-1.591c.13-.052.276-.098.44-.132-.333-.302-.662-.762-.822-1.453-.349.084-1.173.084-1.534-.058-.361-.142-1.074-.152-1.63.229 0 0 .187 1 1.445 1.343 1.18.32 1.621.238 2.1.07zm-.453-1.954l.167-.109c.022-.015.303-.192.784-.23-.405-.311-1.367-1.142-2.053-1.54-.745-.43-1.983-1-2.611-1.085 0 0 .59 1.595 1.278 2.237.712.666 1.211.913 2.435.727zm1.272-.733c-.301-.404-.538-.958-.713-1.614-.144-.533-.467-1.856-.66-2.199-.194-.343-.89-1.543-2.25-1.914 0 0-.362 1.56.322 2.799.588 1.066 1.8 2.19 3.3 2.928zm7.541 7.266c.171.173.299.27.603.427 0 0 .433.85-.091 1.878a26.876 26.876 0 00-1.183 2.66s-.282-.04-.595-1.652c-.213-1.092-.48-1.362-.76-1.736.304.159.553.208.571.211l.213.038.095-.194c.203-.4.281-.85.227-1.295.487.012.749-.241.847-.372.009-.012.018-.022.024-.033l.049.068z" fill="#0055A6"/><path fill-rule="evenodd" clip-rule="evenodd" d="M89.198 21.718a8.464 8.464 0 00-.003.49l.027.385c-.8-1.053-1.762-2.324-2.68-3.493-.629-.803-1.157-1.288-1.749-1.68.498 1.487 1.386 2.672 2.019 3.264.63.59 1.54 1.59 2.43 2.2l.086.3c.069.277.173.559.321.826.208.375.48.746.803 1.101-.281-.14-.566-.275-.853-.402l-.276-.118c-2.446-1.335-4.874-4.097-5.856-6.023-.983-1.923-.574-4.155-.313-5.352 1.11.968 2.71 2.876 3.407 3.913.856 1.273 1.954 3.077 2.634 4.543v.046h.003zm34.312 8.204a3.372 3.372 0 00-.547-.265c1.491-.465 3.542-1.205 6.623-1.414 2.261-.153 3.892-.02 4.738.205 0 0-2.058 1.492-4.413 2.02-2.353.527-4.264.192-5.663.204-.092-.141-.195-.3-.36-.46 1.633.01 4.353-.425 5.325-.757.001.001-2.369-.509-5.703.467zm.007-1.804c-.007.042-.18.908-1.156 1.387 2.094-.944 6.223-1.487 8.44-2.435 2.999-1.28 3.545-2.88 3.545-2.88-2.593-.07-4.693.582-6.309 1.09-1.893.598-4.777 1.704-5.785 2.166.378.016.792.127 1.141.367 1.411-.556 2.066-.79 3.346-1.158 1.008-.29 1.757-.348 2.385-.41 0 0-.889.604-2.352 1.087-1.45.474-2.075.554-3.255.786zm.159-2.354c-.084.154-.331.519-.428.663 3.314-.57 6.957-3.147 8.084-4.743 1.126-1.597.804-3.983.804-3.983-1.094.227-3.467 2.333-4.08 2.964-.615.633-2.475 2.491-3.758 3.53l-.404 1.199c1.1-.91 2.409-1.929 3.225-2.559.626-.486 1.563-1.173 2.499-1.502 0 0-.86 1.151-1.553 1.711-.803.651-1.615 1.216-2.285 1.595-.593.335-.9.526-2.104 1.125zm-.803-4.046c.003.148.007.316.003.49l-.029.385c.802-1.053 1.764-2.324 2.682-3.493.629-.803 1.157-1.288 1.747-1.68-.497 1.487-1.386 2.672-2.017 3.264-.63.59-1.54 1.59-2.43 2.2l-.086.3a3.446 3.446 0 01-.321.826 6.124 6.124 0 01-.803 1.101c.259-.13.557-.271.853-.402l.275-.118c2.446-1.335 4.875-4.097 5.857-6.023.98-1.923.574-4.155.313-5.352-1.111.968-2.709 2.876-3.408 3.913-.858 1.273-1.953 3.077-2.633 4.543v.046h-.003zm-30.548 15.19c-1.008 1.04-3.135 3.364-2.934 5.89 0 0 1.974-.636 2.787-2.126.814-1.487 1.316-2.42 1.66-2.756a2.24 2.24 0 01-.655-.005l-.178-.03c-.501.938-1.494 2.475-2.388 3.01 0 0-.227-1.243 2.4-3.766.036-.104.09-.22.165-.35-.242.086-.515.14-.824.131l-.033.003zm27.069-13.975c-.504 1.142-1.328 2.311-3.571 3.889-.501.353-1.056 1.088-.633 2.12.423 1.034 1.217 2.503.738 3.073-.475.572-2.166.871-3.542.3 0 0-.289.897-.793 1.467 0 0 .238.49 1.031.246 0 0-.29.734.106 1.523 0 0 .926-.162 1.322-1.035 0 0 .37.681 1.111.924 0 0 .608-.324.476-1.576 0 0 .45 1.115 1.823 1.304 0 0 .795-1.032-.236-2.42 0 0 .739.68 2.088.355 0 0 .212-.707-1.005-1.688 0 0 1.375-.053 1.906-1.25 0 0-.584-.733-2.011-.57 0 0 1.322-.3 1.613-1.932 0 0-.951-.625-2.457.38 0 0 .263-.515.898-1.032.632-.516 1.4-1.958 1.136-4.078zm-5.534 16.402c.2-.271.35-.544.461-.81-.235 1.98-.321 3.315-1.361 4.595 0 0-.626-.857-.22-2.941a1.95 1.95 0 00.559-.267s-.238.846-.09 1.698c-.001 0 .374-.282.651-2.275zm1.796-.205c.182-.235.346-.484.49-.744.086 1.148.38 4.173-.604 5.12 0 0-.677-.508-.912-4.918.141.246.392.508.512.652 0 0-.163 1.4.325 2.387.002 0 .49-.383.189-2.497zm2.349 2.311c-.83-1.02-1.077-4.074-1.077-4.074a4.238 4.238 0 01-.482-.382c.001.112-.003.226-.015.341.121 1.838.263 3.733.82 4.676.547.926 1.551 1.404 1.551 1.404.944-1.723-.197-4.04-1.147-5.647a3.018 3.018 0 01-.358-.167c.335 1.24.968 2.713.708 3.85zm2.336-5.302c.007.198-.03.357-.056.442-.01.031-.021.077-.044.122.789.8 1.376 1.56 2.546 3.232 1.171 1.674 3.026 1.74 3.026 1.74-.179-1.354-.537-2.426-1.529-3.579-.993-1.155-2.262-2.208-3.194-2.908a1.686 1.686 0 01-.948.139 1.29 1.29 0 01-.093-.013c.125.167.201.335.244.492.706.417 2.757 1.487 3.586 3.209 0 0-1.298-.417-3.538-2.876zm1.471-1.687l-.077-.143a1.33 1.33 0 00-.082-.131c.76.305 3.477 1.359 4.355 1.825.879.47 2.149 1.535 2.841 3.695 0 0-1.832.17-3.345-1.116-1.513-1.29-3.275-3.086-4.027-3.659a1.65 1.65 0 00.176-.198s2.046 1.865 4.208 2.67c0 0-.462-.864-1.317-1.492-1.042-.76-1.82-1.017-2.732-1.451zm1.553-1.272a4.162 4.162 0 00-.093-.215c.898.19 3.138.464 4.139.779 1.001.315 2.809 1.07 3.882 3.174 0 0-1.575.502-4.55-.94-2.974-1.438-3.903-1.735-4.473-1.89.454-.034.774-.192.942-.295 1.187.54 2.772 1.186 4.347 1.227 0 0-.778-.565-1.594-.917a19.553 19.553 0 00-2.6-.923zm-.074-1.517a2.417 2.417 0 01-.896.254c.208.136.405.312.581.547 1.048.31 2.834.65 5.781.869 2.947.22 4.518-.34 4.518-.34-1.025-.645-2.664-1.3-3.77-1.52-1.107-.22-4.016-.197-5.291-.374-.132.11-.272.21-.419.3 1.073.099 3.357.21 4.536.822-.001 0-2.176.3-5.04-.558z" fill="#0055A6"/><path fill-rule="evenodd" clip-rule="evenodd" d="M114.333 35.3a2.826 2.826 0 01-.26-.262c-.155.199-.663.858-.913 1.511a19.45 19.45 0 00-.497 1.757c-.102.434-.404 1.337-.586 1.65 0 0 .807.104 1.403-.613.587-.704.789-1.412.878-2.14a8.128 8.128 0 00-.025-1.903zm1.271.11c-.081.119-.185.22-.307.297l-.107.057-.117-.037a2.057 2.057 0 01-.278-.117c-.115.336-.164.498-.193.784-.039.378-.114.975.026 1.463.17.595.513.957.705 1.188 0 0 .529-.598.679-1.091.159-.516.217-1.117.021-1.73a2.443 2.443 0 00-.429-.815zm1.821.055a2.648 2.648 0 01-1.258-.508c-.069.196-.172.46-.093.832.077.373.328.787.691 1.086.542.447 1.274.868 2.077.738 0 0 .185-.62-1.417-2.148zm.609-1.037c-.064.553-.322.9-.342.927.188.23.867 1.431 2.284 1.228 0 0 .383-.815-.558-1.465-.643-.44-.944-.53-1.384-.69zm-.124-1.024c.378.098.869.136 1.471-.01l.161-.04.051-.162c.726.61 1.59.711 1.887 1.262 0 0-.363.693-1.304.576a3.128 3.128 0 01-2.16-1.22 2.854 2.854 0 00-.106-.406zm1.636-.859c-.137-.204-.229-.521-.511-.842a4.92 4.92 0 011.92.024c.871.17 1.76.38 2.203 1.742 0 0-.559.49-1.574.277-.861-.181-1.611-.563-2.038-1.2zm.367-1.478a2.23 2.23 0 00.564-.778l.073-.17c.756-.315 1.542-.479 2.309-.184.77.297.973.639 1.169.933 0 0-.851.733-1.834.761-.982.032-1.887-.259-2.281-.562zm-.229-1.591a2.534 2.534 0 00-.438-.132c.334-.302.66-.762.82-1.453.351.084 1.176.084 1.537-.058.361-.142 1.074-.152 1.628.229 0 0-.182 1-1.444 1.343-1.183.32-1.62.238-2.103.07zm.455-1.954l-.166-.109c-.023-.015-.306-.192-.786-.23.407-.311 1.369-1.142 2.055-1.54.743-.43 1.98-1 2.611-1.085 0 0-.59 1.595-1.278 2.237-.713.666-1.213.913-2.436.727zm-1.273-.733c.301-.404.54-.958.715-1.614.142-.533.467-1.856.66-2.199.195-.343.889-1.543 2.25-1.914 0 0 .361 1.56-.324 2.799-.591 1.066-1.797 2.19-3.301 2.928zm-7.539 7.266a2.055 2.055 0 01-.603.427s-.433.85.091 1.878c.523 1.03.97 2.08 1.181 2.66 0 0 .283-.04.597-1.652.212-1.092.48-1.362.759-1.736a2.23 2.23 0 01-.573.211l-.21.038-.098-.194c-.201-.4-.279-.85-.225-1.295-.488.012-.748-.241-.848-.372l-.023-.033-.048.068z" fill="#0055A6"/><path fill-rule="evenodd" clip-rule="evenodd" d="M119.747 36.909c1.008 1.038 3.134 3.363 2.934 5.89 0 0-1.975-.637-2.789-2.127-.812-1.487-1.316-2.42-1.657-2.756.219.03.437.029.654-.005l.177-.03c.502.938 1.494 2.475 2.389 3.01 0 0 .226-1.243-2.4-3.766a2.271 2.271 0 00-.165-.35c.239.086.514.14.823.131l.034.003zm-15.254-20.132c0-.186.691-.337 1.541-.337.851 0 1.542.151 1.542.337 0 .186-.691.337-1.542.337-.85 0-1.541-.15-1.541-.337zm-5.235 1.826c0-.103.444-.185.996-.185.547 0 .992.082.992.185 0 .101-.445.184-.992.184-.552 0-.996-.083-.996-.184zm7.079-1.082a.299.299 0 01-.087.22.307.307 0 01-.216.092.308.308 0 01-.304-.312c0-.171.136-.311.304-.311.169 0 .303.14.303.311zm-1.955-1.072c-.514-1.26-.855-2.186-.843-2.498.01-.19.227-.329.431-.393.204-.065.386-.077.523.03.267.21.515 1.908.607 2.615a2.155 2.155 0 00-.718.246zm.937-.274c.129-.014.264-.024.399-.027-.082-.674-.308-1.8-.443-2.242-.133-.443-.304-.762-.585-.843 0 0 .219.617.338 1.257.119.64.214 1.25.291 1.855zm-1.624 2.253c.564-.14 1.144-.761 1.144-.761-.912.136-1.144.76-1.144.76zm.847-.058c-.788.474-1.673.4-1.673.4.17-.32.331-.618.824-.98.495-.365 1.299-.456 1.616-.41-.07.244-.393.765-.767.99zm-2.944 1.336v-.066c-.777.101-1.693.058-1.693.058.05.298.169.523.374.662.05-.647 1.319-.654 1.319-.654zm-2.575-.857s.98.377 1.963.326c.98-.05 2.787-.072 3.372-.362 0 0-.098.376-.563.596 0 0 .247 0 .488.218 0 0-.142.311-.558.478 0 0 .748.798 1.545.741 0 0-.368.471-1.187.29-.817-.181-1.079-.653-1.22-.835 0 0 .105.45.055.633 0 0-.36-.023-.641-.387 0 0 .205.364.246.669 0 0-.225.03-.629-.218 0 0 .084.224.101.485 0 0-.948-.313-1.406-.754 0 0-.007.304.016.48-.001 0-1.47-.153-1.582-2.36zm-.225.154c.034.478.155.95.316 1.284 0 0-.579-.449-.72-.826-.14-.38-.175-.64.404-.458zm-1.16 1.813a.242.242 0 00.24-.245.246.246 0 00-.24-.248.245.245 0 00-.24.248c0 .136.109.245.24.245zm1.414-.29c.388.181.732.61.732.61-.586.138-.848.312-.848.312a1.627 1.627 0 00-2.046.007c-.607-.356-.726-1.22-.422-1.676.303-.458.988-.377 1.313-.3.205.67.924.886 1.271 1.047zm.86.762s.411.56.706.805c0 0-1.51-.014-1.891 1.33 0 0-.523-.821-.141-1.358.41-.58.79-.652 1.326-.777z" fill="#0055A6"/><path fill-rule="evenodd" clip-rule="evenodd" d="M101.571 21.622s.488.146.649.189c0 0 .008-.29-.006-.428.148.035.33.087.486.1 0 0 .487 1.118.867 1.568 0 0 .022.248-.189.624 0 0-.275-.66-.77-1.189-.281-.3-.458-.45-1.037-.864zm-1.286-.238c.158.043.935.294 1.313.573.474.348.798.746.748 1.435 0 0-.38-.543-.803-.79-.335-.195-.939-.74-1.258-1.218zm.012-5.055c.144 0 .423.07.423.307 0 .239-.362.814-.46 1.07h-.007c-.098-.256-.461-.831-.461-1.07 0-.237.28-.307.424-.307h.081zm-.316 1.856c-.069-.336-.197-1.206-.399-1.399-.191-.183-.472-.2-.611-.191a.268.268 0 00-.231.353c.058.196.683 1.161.764 1.282.146-.024.118-.016.477-.045zm.553 0c.071-.336.198-1.206.399-1.399.19-.183.474-.2.611-.191a.268.268 0 01.231.353c-.057.196-.683 1.161-.765 1.282-.146-.024-.117-.016-.476-.045zm.404-3.026h-.488v-.555h-.394v.555h-.49v.348h.49v.654h.394v-.654h.488v-.348zm-5.91 3.574c0-.106.007-.213.021-.318.038-.229.042-.461.012-.69-.349.137-.588.224-1.07 1.026-.002 0 .77-.489 1.036-.018zm.672 1.272c.011-.2.137-.827.298-1.272.197-.542.085-1.333-.152-1.811-.23-.463-.356-.899-.315-1.378 0 0-.458.157-.72.323-.043.556.272 1.112.424 1.429.177.373.141.86.102 1.159a2.258 2.258 0 00.364 1.55zm.053-4.251a.66.66 0 01.016-.307s.718-.72 1.323-.842a.803.803 0 01.728.192s-.212-.026-.533.243c-.32.27-.722.595-1.025.676-.3.08-.365.056-.509.038zm2.126-.903c.27.278.499.571.494.826-.004.264-.303.925-.46 1.18-.156.253-.384.581-.359.984.014.2.15.407.31.576 0 0-.879-.215-.986-.773-.096-.5.112-.85.253-1.127.132-.26.538-.867.64-1.12.094-.229.143-.42.108-.546zm5.142 6.295c.176.638.475 1.239.769 1.712.265.428.433 1.129.409 1.366 0 0 .398-.902.193-1.54-.157-.492-.584-1.227-1.371-1.538zm.99.211s.602.008.885.2c.364.247.707.784.84 1.43 0 0-.609-.108-.91-.418-.301-.311-.673-.774-.815-1.212zm-3.124 1.12c-.194.03-.387.073-.576.128 0 0 .515.154.77.373.219.185.409.472.497.955.124.675.511 1.402.627 1.62l.046-.009c-.072-.464.212-1.428.282-1.565 0 0-.407-.264-.593-.538-.137-.2-.381-.536-1.053-.964zm2.674 1.448c.15.355.549.982.362 1.638-.186.656-.601.938-.858 1.492 0 0-.205-1-.158-1.774.042-.774.317-1.074.654-1.356zm1.159.027s.6 1.196.708 1.666c.105.463.008.773-.196 1.055-.204.28-.549.583-.866 1.174 0 0-.371-.5-.417-.765-.045-.264.027-.893.108-1.156.078-.263.396-1.11.663-1.974zm.308 3.82c-.133.145-.834 1.012-.929 1.265-.093.254-.255.73-.038 1.062.219.331.717.862 1.155 1.087 0 0-.474-.76-.426-1.384.031-.398.33-.754.387-.998.057-.244.021-.653-.149-1.032zm-1.372-.48c.107.154.295.526.32.891.024.357-.031.645-.221 1.17a15.44 15.44 0 01-.784 1.73s-.33-.485-.511-.916c0 0 .515-.725.734-1.238.254-.603.362-1.162.462-1.637zm-.24-.28s-.221 1.702-1.195 2.968c-.658.856-1.196 1.154-1.549 1.154-.536 0-1.074-.459-1.254-.984-.181-.525-.124-1.339.221-1.628 0 0 .322 1.022 1.007 1.059.775.044 1.772-.847 2.77-2.569z" fill="#0055A6"/><path fill-rule="evenodd" clip-rule="evenodd" d="M102.617 26.3c.081.305.107.772 0 1.213-.082.334-.28.774-.661 1.018-.328.21-1.105.262-1.401-.493-.001 0 1.416.11 2.062-1.738zm2.32 6.868c.195.511.889 1.16.886 1.559-.014 1.06-.462 1.71-.57 2.06 0 0-.825-.675-.972-1.449-.074-.395.013-1.584.656-2.17zm-.923.748c.097-.274.4-1.022.752-1.284 0 0 .451-1.36-.994-2.195 0 0-.594.81-.752 1.572-.157.76.631 1.221.994 1.907zm-1.806-3.429c-.232.286-.559.685-.813.81 0 0-.085.608-.037 1.01.073.599.448 1.211.608 1.66 0 0 .631-.849.704-1.348.073-.5.06-.91.084-1.147-.001 0-.352-.587-.546-.985zm-1.662 2.909c-.179-.28-.759-1.31-.767-2.056 0 0 .713.389 1.309.104 0 0 .08.972-.036 1.3-.094.268-.217.428-.506.652zm.163.209c.117-.103.4-.373.516-.515 0 0 .471.89.553 1.15 0 0-.237.062-.496-.131a3.73 3.73 0 01-.573-.504zm2.188-.523c-.058.225-.822 1.316-.952 1.45 0 0 .059.396.341.964.283.568.677.965.887 1.166 0 0 .47-.845.61-1.218.16-.425.141-.845.073-1-.159-.368-.713-.899-.959-1.362zm1.149 2.856c.167.352.676.926.756 1.382.062.359.006.65-.088.898-.094.246-.4.725-.605 1.093 0 0-.697-.677-.851-1.16-.116-.364-.072-.882.096-1.203.167-.323.532-.675.692-1.01zm-1.978-.098c.182.405.612.81.712 1.165.117.42.153.688-.043 1.174-.175.43-.388.68-.46.942 0 0-.566-.753-.659-1.067-.096-.315-.125-.832-.009-1.16.117-.328.322-.757.459-1.054zm2.791 2.87s-.975 1.21-.952 1.853c.029.801.545 1.332.618 1.824 0 0 .51-.595.705-.994.218-.449.385-.83.328-1.338-.059-.507-.192-.835-.699-1.345zm-1.796-.12c.154.232.591 1.024.466 1.495-.123.47-.603 1.136-.762 1.42 0 0-.387-.815-.474-1.189-.086-.373-.007-.977.77-1.725zm9.748-19.988c0-.102-.445-.184-.994-.184-.548 0-.993.082-.993.184s.445.185.993.185c.549 0 .994-.083.994-.185zm-6.767-3.136c.066-.457.581-1.43.581-1.857a.598.598 0 00-.59-.607.601.601 0 00-.59.607c0 .427.516 1.4.579 1.857h.02zm1.645.983c.515-1.26.855-2.187.843-2.498-.011-.19-.226-.33-.431-.393-.206-.066-.388-.077-.521.029-.268.211-.516 1.909-.608 2.616.259.052.416.085.717.246zm-.937-.274a4.933 4.933 0 00-.399-.027c.081-.675.307-1.8.441-2.243.133-.442.305-.761.586-.842 0 0-.219.617-.338 1.257a32.259 32.259 0 00-.29 1.855zm.481 1.493s.576.622 1.143.76c.002 0-.234-.625-1.143-.76zm-.474-.288c.317-.046 1.124.045 1.619.41.493.363.654.66.824.98 0 0-.886.074-1.675-.4-.371-.225-.695-.746-.768-.99zm5.032 2.98c.206-.14.325-.365.372-.662 0 0-.915.043-1.691-.058v.066s1.27.007 1.319.653zm-.324.849c.023-.175.015-.48.015-.48-.46.442-1.405.754-1.405.754.014-.261.098-.485.098-.485-.401.246-.628.218-.628.218.043-.306.248-.669.248-.669a.968.968 0 01-.643.386c-.049-.182.057-.632.057-.632-.141.182-.403.653-1.221.834-.82.182-1.187-.29-1.187-.29.8.058 1.546-.74 1.546-.74a1.058 1.058 0 01-.559-.478c.242-.218.488-.218.488-.218-.467-.22-.565-.597-.565-.597.587.29 2.393.312 3.376.363.98.05 1.962-.326 1.962-.326-.114 2.207-1.582 2.36-1.582 2.36zm1.807-2.206c-.036.478-.155.95-.317 1.284 0 0 .577-.45.718-.826.143-.38.178-.64-.401-.458zm1.397 1.568a.25.25 0 00-.069-.174.246.246 0 00-.172-.074.246.246 0 00-.24.248c0 .136.11.245.24.245a.24.24 0 00.223-.152.248.248 0 00.018-.093zm-.382-1.09c.326-.078 1.01-.159 1.313.299.304.457.184 1.32-.422 1.676 0 0-.926-.82-2.047-.007 0 0-.263-.174-.848-.313 0 0 .346-.428.734-.609.346-.162 1.065-.378 1.27-1.046zm-2.129 1.807s-.411.559-.706.805c0 0 1.511-.014 1.891 1.33 0 0 .522-.821.14-1.358-.41-.58-.79-.652-1.325-.777z" fill="#0055A6"/><path fill-rule="evenodd" clip-rule="evenodd" d="M110.501 21.622s-.488.146-.65.189c0 0-.008-.29.007-.428-.148.035-.333.087-.488.1 0 0-.486 1.118-.867 1.568 0 0-.022.247.191.624 0 0 .274-.66.768-1.189.279-.3.46-.45 1.039-.864zm1.284-.238c-.157.043-.937.294-1.313.573-.473.347-.8.746-.749 1.435 0 0 .382-.543.803-.79.336-.195.941-.74 1.259-1.218zm-.01-5.055c-.145 0-.424.07-.424.306 0 .24.363.815.459 1.071h.009c.096-.256.459-.831.459-1.07 0-.237-.279-.307-.424-.307h-.079zm.314 1.856c.068-.336.197-1.206.399-1.399.191-.183.471-.2.612-.191a.275.275 0 01.2.121.256.256 0 01.042.112.256.256 0 01-.011.12c-.058.196-.685 1.161-.766 1.282-.146-.024-.116-.016-.476-.045zm-.553 0c-.069-.336-.196-1.206-.399-1.399-.192-.183-.472-.2-.613-.191a.268.268 0 00-.199.121.269.269 0 00-.031.232c.06.196.684 1.161.766 1.282.145-.024.116-.016.476-.045zm-.402-3.026h.487v-.555h.393v.555h.49v.348h-.49v.654h-.393v-.654h-.487v-.348zm-5.855-3.281h.486v-.557h.395v.557h.488v.349h-.488v.652h-.395v-.652h-.486v-.35zm11.763 6.855c0-.106-.008-.213-.023-.318a2.576 2.576 0 01-.012-.691c.351.138.588.225 1.071 1.027.001 0-.767-.49-1.036-.018zm-.674 1.272c-.009-.2-.136-.827-.296-1.272-.196-.542-.084-1.333.153-1.812.227-.462.355-.898.313-1.377 0 0 .458.157.719.323.043.556-.272 1.111-.421 1.429-.18.373-.142.86-.103 1.158a2.252 2.252 0 01-.365 1.55zm-.05-4.251a.638.638 0 00-.018-.307s-.717-.72-1.321-.843a.81.81 0 00-.73.193s.213-.026.534.242c.322.27.721.595 1.025.677.3.08.366.056.51.038zm-2.128-.903c-.271.278-.498.571-.494.825.006.265.303.926.46 1.18.158.254.386.582.358.985-.015.2-.148.407-.308.576 0 0 .88-.215.987-.774.095-.499-.112-.85-.253-1.127-.133-.258-.538-.866-.64-1.118-.093-.23-.142-.421-.11-.547zm-5.138 6.295a6.809 6.809 0 01-.77 1.711c-.267.428-.435 1.13-.408 1.367 0 0-.399-.902-.194-1.54.157-.492.581-1.227 1.372-1.538zm-.994.211s-.602.008-.884.2c-.363.247-.709.784-.842 1.43 0 0 .611-.109.912-.418.302-.311.674-.774.814-1.212zm3.127 1.12c.114.01.423.083.574.128 0 0-.514.154-.769.372-.22.186-.407.473-.496.956-.125.674-.511 1.402-.628 1.62l-.046-.009c.072-.464-.213-1.428-.283-1.566 0 0 .409-.263.595-.537.136-.201.381-.536 1.053-.964zm-2.674 1.448c-.151.354-.549.982-.364 1.638.185.655.603.938.858 1.492 0 0 .206-1.001.16-1.774-.044-.774-.318-1.074-.654-1.356zm-2.467 1.834c.025-.382.892-1.307.848-1.807-.045-.5-.693-.856-.851-.928h-.008c-.16.072-.807.427-.851.928-.044.5.82 1.425.847 1.807h.015zm1.307-1.807s-.601 1.195-.708 1.666c-.104.463-.008.773.197 1.054.203.283.547.584.867 1.175 0 0 .37-.5.415-.765.043-.264-.027-.893-.107-1.156-.08-.263-.399-1.11-.664-1.974zm-1.309 4.628c.275-.244.518-.604.595-.82.075-.214.098-.528-.084-.767-.219-.287-.492-.606-.511-.867h-.014c-.021.262-.292.58-.51.867-.181.24-.161.553-.083.768.075.215.321.575.596.819h.011zm1.002-.809c.131.146.832 1.013.926 1.266.095.253.256.73.037 1.062-.217.331-.714.862-1.152 1.087 0 0 .473-.76.426-1.385-.032-.397-.333-.753-.39-.997-.057-.244-.018-.653.153-1.033zm1.372-.48a1.983 1.983 0 00-.321.892c-.024.357.032.645.223 1.17.239.662.608 1.4.783 1.73 0 0 .329-.485.51-.916 0 0-.515-.725-.733-1.238-.257-.603-.363-1.162-.462-1.637zm.239-.28s.221 1.703 1.195 2.969c.659.856 1.195 1.154 1.55 1.154.536 0 1.071-.459 1.253-.984.18-.525.123-1.34-.222-1.628 0 0-.321 1.022-1.006 1.059-.776.044-1.775-.847-2.77-2.57z" fill="#0055A6"/><path fill-rule="evenodd" clip-rule="evenodd" d="M109.454 26.3a2.619 2.619 0 000 1.213c.081.334.28.774.658 1.018.331.21 1.105.262 1.402-.493.001 0-1.417.11-2.06-1.738zm-2.816 4.522c.181-.285.352-.81.254-1.184-.12-.462-.364-.649-.509-.937-.122.114-.195.203-.341.292h-.008c-.147-.089-.224-.178-.346-.292-.145.288-.389.475-.511.937-.094.373.075.9.257 1.184.23.362.4.436.601.534.202-.098.371-.172.603-.534zm-.603 3.405c.098-.449 1.015-1.321.93-1.796-.125-.71-.572-.56-.923-.861h-.007c-.354.3-.803.15-.929.86-.083.474.826 1.347.925 1.797h.004zm1.1-1.059c-.196.511-.891 1.16-.887 1.559.012 1.06.461 1.709.57 2.059 0 0 .825-.674.969-1.448.075-.395-.01-1.584-.652-2.17zm.921.748c-.098-.274-.402-1.022-.753-1.284 0 0-.449-1.36.995-2.195 0 0 .594.81.754 1.572.156.76-.63 1.221-.996 1.907zm1.807-3.429c.23.286.559.685.813.81 0 0 .084.608.036 1.01-.073.599-.449 1.211-.607 1.66 0 0-.632-.849-.705-1.348-.073-.5-.06-.91-.084-1.147 0 0 .352-.587.547-.985zm1.663 2.909c.178-.28.759-1.31.766-2.056 0 0-.713.389-1.309.104 0 0-.078.972.037 1.3.093.268.217.428.506.652zm-.164.209a5.977 5.977 0 01-.517-.515s-.471.89-.553 1.15c0 0 .237.062.496-.132s.318-.243.574-.503zm-2.188-.523c.058.225.822 1.316.95 1.45 0 0-.057.396-.342.964a4.247 4.247 0 01-.885 1.166s-.47-.845-.612-1.218c-.158-.425-.138-.846-.071-1 .16-.368.712-.899.96-1.362zm-2.434 5.286c.108-.31.103-.669-.016-.913-.137-.285-.632-.986-.69-1.19-.062.204-.551.904-.69 1.19-.12.245-.123.605-.014.913.183.517.623.871.697 1.171h.014c.073-.3.513-.654.699-1.17zm1.286-2.43c-.169.352-.676.926-.756 1.382-.063.358-.007.65.087.898.093.246.401.725.604 1.093 0 0 .698-.677.851-1.16.116-.364.073-.882-.094-1.203-.17-.323-.533-.675-.692-1.01zm1.977-.098c-.183.405-.614.81-.713 1.165-.116.42-.153.688.044 1.174.173.43.385.68.459.942 0 0 .564-.753.66-1.067.096-.314.124-.832.009-1.16-.119-.328-.322-.757-.459-1.054zm-3.968 9.485c.036-.369.778-1.51.813-2.72.019-.607-.509-1.555-.806-1.915h-.015c-.3.36-.822 1.308-.805 1.914.036 1.211.774 2.351.813 2.72zm1.177-6.615s.975 1.21.952 1.853c-.028.801-.546 1.332-.618 1.824 0 0-.511-.595-.705-.994-.218-.449-.385-.83-.324-1.338.056-.508.185-.835.695-1.345zm1.794-.12c-.152.232-.588 1.024-.464 1.495.123.47.604 1.136.763 1.42 0 0 .385-.815.473-1.189.086-.373.005-.977-.772-1.725z" fill="#0055A6"/><path fill-rule="evenodd" clip-rule="evenodd" d="M106.702 47.267c.06-.941.579-1.505.667-1.995.103-.538.069-1.052-.339-1.674-.246.89-.572 1.755-.974 2.586l-.022.047-.02-.047a15.293 15.293 0 01-.976-2.586c-.406.62-.442 1.136-.34 1.674.092.49.61 1.054.667 1.995.06.943-.973 1.302-.973 1.302.349.127.746.185 1.374-.428a1.32 1.32 0 00.268-.363c.066.129.152.251.268.363.629.613 1.024.557 1.372.428.001 0-1.03-.36-.972-1.302zm-3.247-6.261c.11.352.431 1 .472 1.2.077.374-.027.825-.689 1.306 0 0-.429-.308-.599-.713-.158-.38-.067-.648.1-.843.164-.198.552-.654.716-.95zm1.392 1.394c0 .189-.136 1.254-.43 1.783-.413.743-1.022 1.296-1.553 1.296-.494 0-.598-.302-.843-.426 0 0 .125-.645.678-.814.682-.208 1.726-1.048 2.148-1.839z" fill="#0055A6"/><path fill-rule="evenodd" clip-rule="evenodd" d="M103.073 43.758c-.115-.09-.215-.153-.351-.316 0 0-.527.2-.957.5-.433.298-.856.805-1.085 1.073 0 0 .647.172 1.057-.02 0 0 .15-.636.61-.92.103-.061.426-.158.726-.317zm-.54-.546c-.1-.16-.305-.456-.261-.918 0 0-.908.59-1.183.818-.274.227-.841.83-.967 1.029 0 0 .687-.154 1.216-.335.581-.2.982-.467 1.195-.594zm-1.542 1.014c-.488.177-1.592.363-2.053.503-.462.14-.796.386-1.238.882 0 0 .677.192 1.04.312 0 0 .576-.404 1.206-.653.411-.162.61-.607 1.045-1.044zm-1.023 3.342c.106-.119.238-.257.136-.539-.073-.206-.472-.431-.713-.553-.395-.192-1.491-.494-1.848-.603 0 0-.178.216-.273.442-.042.088.014.178.169.207.304.052 1.04-.088 1.218.031.194.129.126.304.126.475 0 0 .335-.21.545-.163.294.069.471.209.64.703zm-.976-1.566c.079.026.506.162.922.432 0 0 .186-.072.276-.248.089-.168.464-.737.807-.813 0 0-.293-.03-.459-.083 0 0-.359.094-.61.2a5.48 5.48 0 00-.936.512zm2.828-.72c-.068.031-.178.085-.434.097 0 0-.966.688-1.078 1.373-.097.588.204.868.349.942.145.075.819.36 1.257-.567 0 0-.748.252-.949-.119-.203-.368.124-.906.329-1.061.266-.204.746-.343 1.036-.29 0 0-.233-.23-.51-.375z" fill="#0055A6"/><path fill-rule="evenodd" clip-rule="evenodd" d="M95.502 53.154c.118-.504.248-1.036.472-1.524.435-.948 1.504-3.476 3.733-3.922.211-.04-.24-.573-.441-.548-.199.026-.598.29-.773.41 0 0 0-.54-.005-.635-.006-.097-.088-.133-.175-.128-.084 0-.626-.005-.795.198-.508.604-1.366 2.23-1.85 3.443-.488 1.21-.82 1.58-1.334 1.393-.512-.183-.818-.789-1.713-.605-.308.062-.653.277-.921.593.073.147.17.327.588.327.416 0 1.213.18 1.659.502.446.317.913.424 1.555.496zm8.898-7.834c.051.39.234.758.438 1.138 0 0-.679 3.221-3.134 3.47 0 0 .05-.667.777-1.176.727-.51 1.814-1.297 1.734-2.495 0 0-.194.041-.543.49-.348.45-1.114 1.745-2.297 1.755 0 0 .173-.608.698-.958.525-.348 1.193-.797 1.494-1.337.3-.538.622-.786.833-.887zm-1.157 11.728l1.492 2.149 1.132-2.071-.401-.739c-.296.547-.612 1.136-.793 1.454l-1.006-1.454-.424.66z" fill="#0055A6"/><path fill-rule="evenodd" clip-rule="evenodd" d="M102.86 55.228l-3.433-4.952.564-.416-1.781-.7.034 1.991.602-.444 3.594 5.181.42-.66zm-12.276-11.77c.44-.492 1.186-.069 1.936.645.754.71 1.229 1.438.789 1.931-.406.455-1.185.068-1.938-.644-.752-.71-1.227-1.44-.787-1.932z" fill="#0055A6"/><path fill-rule="evenodd" clip-rule="evenodd" d="M91.798 52.21a1.218 1.218 0 01-.071-.064c-.4-.36-.627-.913-.627-1.519 0-1.164.92-2.111 2.053-2.111 1.131 0 2.05.947 2.05 2.111 0 .159-.029.414-.029.414.095-.18.43-.985.5-1.131-.306-1.138-1.321-1.973-2.52-1.973-1.033 0-1.926.618-2.352 1.514.162-1.064.675-2.022 1.043-2.376.435-.424 1.178-.559 1.178-.559-.485.08-1.128-.227-1.847-.905-.682-.645-1.034-1.207-1.053-1.678.043.665.023 1.037-.16 1.577-.25.736-.928 2.092-.686 3.623.134.841.727 2.092 1.718 3.115.21.23.292.57.315.748 0 0 1.465 0 1.811.03 0 0 .348-.03.342-.256-.006-.221-.2-.278-.372-.278-.173 0-.903.016-1.293-.283zm8.084.51c-.94.352-1.877.535-2.767.675a8.183 8.183 0 01-1.689.095.52.52 0 01-.044.306s.11.13.11.275a8.673 8.673 0 001.711-.103c.97-.155 1.995-.358 3.024-.757l-.345-.49zm1.543-.073c1.246-.703 2.465-1.782 3.562-3.508l.198-.34c-.299.137-.686.043-.686.043-.017.028-.066.105-.091.148-1.024 1.556-2.157 2.537-3.316 3.177l.333.48zm-8.226.55c-.17-.028-.717-.014-1.047.039-.359.058-.768.134-.81.337-.042.194.09.4.27.693.114.181.379.077.528.021.15-.056.992-.521 1.128-.674.136-.155.191-.37-.069-.416zm.861.573a.622.622 0 00-.54-.057c-.227.089-1.06.594-1.114.83-.056.234.057.355.186.408.128.053.285.102.4.113a.629.629 0 00.516-.24c.108-.134.495-.618.552-.728.055-.109.087-.267 0-.326zm.1.531a11.55 11.55 0 00-.495.627c-.04.07.02.176.126.165.103-.01.674-.07 1.004-.303.328-.23.549-.674.321-.837-.224-.164-.573-.09-.956.348zm.185-1.282c-.109-.027-.54-.141-.635.007-.118.182-.032.38.302.546.335.166.969.297 1.095.12.124-.18-.048-.484-.762-.673zm14.267-12.013c-.109.352-.428 1-.469 1.2-.077.374.026.825.688 1.306 0 0 .428-.308.6-.713.159-.38.064-.648-.1-.843-.167-.198-.553-.654-.719-.95zm-1.393 1.394c0 .189.138 1.254.433 1.783.413.743 1.019 1.296 1.551 1.296.495 0 .598-.302.843-.426 0 0-.124-.645-.68-.814-.678-.208-1.722-1.048-2.147-1.839zm1.778 1.358c.114-.09.212-.153.351-.316 0 0 .525.2.956.5.431.298.855.805 1.085 1.072 0 0-.647.173-1.059-.02 0 0-.15-.635-.61-.919-.101-.062-.424-.158-.723-.317zm.539-.546c.1-.16.306-.456.261-.918 0 0 .909.59 1.183.818.274.227.841.83.969 1.029 0 0-.69-.154-1.217-.335-.582-.2-.981-.467-1.196-.594zm1.54 1.014c.489.177 1.591.363 2.053.503.462.14.797.386 1.239.882 0 0-.678.192-1.039.312 0 0-.577-.404-1.207-.653-.411-.162-.61-.607-1.046-1.044zm1.024 3.342c-.105-.119-.237-.258-.135-.539.072-.206.472-.431.714-.553.395-.192 1.492-.494 1.848-.603 0 0 .177.216.272.442.042.088-.013.178-.168.207-.306.052-1.042-.088-1.219.031-.193.129-.125.304-.125.475 0 0-.335-.21-.547-.163-.293.069-.472.209-.64.703zm.978-1.566c-.079.026-.506.162-.925.432 0 0-.183-.072-.273-.248-.089-.168-.465-.737-.806-.813 0 0 .289-.03.458-.083 0 0 .358.094.61.2.252.104.567.265.936.511zm-2.828-.72c.066.031.175.085.43.097 0 0 .966.688 1.081 1.373.098.588-.203.868-.349.942-.148.075-.819.36-1.258-.567 0 0 .746.252.95-.119.203-.368-.125-.906-.329-1.061-.266-.205-.746-.343-1.04-.29.002 0 .237-.23.515-.375z" fill="#0055A6"/><path fill-rule="evenodd" clip-rule="evenodd" d="M116.565 53.154c-.118-.504-.247-1.036-.472-1.524-.433-.948-1.503-3.476-3.73-3.922-.212-.04.239-.573.437-.548.203.026.6.29.775.41 0 0 0-.54.005-.635.007-.097.088-.133.175-.128.085 0 .626-.005.795.198.509.604 1.365 2.23 1.851 3.443.487 1.21.82 1.58 1.331 1.393.513-.183.82-.789 1.716-.605.308.062.65.277.921.593-.074.147-.17.327-.587.327-.419 0-1.216.18-1.66.502-.447.317-.913.424-1.557.496zm-8.899-7.834c-.046.39-.232.758-.435 1.138 0 0 .679 3.221 3.132 3.47 0 0-.049-.667-.774-1.176-.728-.51-1.815-1.297-1.738-2.495 0 0 .194.041.545.49.349.45 1.113 1.745 2.297 1.755 0 0-.175-.608-.697-.958-.524-.348-1.194-.797-1.495-1.337-.302-.538-.62-.786-.835-.887zm-1.626 3.121c.141.43 1.071 1.776 1.478 2.16.407.386 1.396 1.402 1.924 1.913 0 0-1.507-.385-2.352-1.176 0 0-.606.363-1.045.363h-.024c-.439 0-1.043-.363-1.043-.363-.847.791-2.353 1.176-2.353 1.176.528-.511 1.518-1.528 1.924-1.912.408-.384 1.337-1.73 1.48-2.16h.011z" fill="#0055A6"/><path fill-rule="evenodd" clip-rule="evenodd" d="M106.044 52.016c.333 0 .65-.137.825-.216-.175.385-.512.983-.832 1.233h-.007c-.318-.25-.654-.848-.832-1.233.178.078.49.216.824.216h.022z" fill="#0055A6"/><path fill-rule="evenodd" clip-rule="evenodd" d="M107.331 59.197l5.893-8.49.602.444.034-1.991-1.782.7.563.416c-.287.418-4.693 6.768-5.248 7.565l-2.668-4.971-.328.515-2.376 3.69-.593-.409-.01 1.965 1.802-.736-.603-.412c.325-.51 1.615-2.51 2.046-3.18l2.668 4.894z" fill="#0055A6"/><path fill-rule="evenodd" clip-rule="evenodd" d="M108.409 55.861a252.37 252.37 0 01-1.002-1.555c-.148.285-.454.845-.79 1.462l-.42-.775 1.146-2.122.33.516 1.181 1.834-.445.64zm1.212.553l.426.66.594-.408.01 1.965-1.802-.736.602-.412-.273-.428.443-.64zm11.865-12.956c-.442-.492-1.186-.069-1.939.645-.753.71-1.226 1.438-.788 1.931.408.455 1.187.068 1.94-.644.752-.71 1.226-1.44.787-1.932z" fill="#0055A6"/><path fill-rule="evenodd" clip-rule="evenodd" d="M120.272 52.21a.933.933 0 00.069-.063c.401-.36.628-.914.628-1.52 0-1.164-.92-2.111-2.053-2.111-1.13 0-2.05.947-2.05 2.112 0 .158.029.414.029.414-.092-.181-.43-.986-.499-1.132.306-1.137 1.318-1.973 2.519-1.973 1.035 0 1.928.619 2.353 1.515-.162-1.064-.678-2.022-1.043-2.377-.435-.423-1.181-.559-1.181-.559.488.08 1.131-.227 1.848-.905.683-.645 1.035-1.206 1.055-1.678-.043.665-.023 1.038.16 1.578.248.736.926 2.091.685 3.622-.133.841-.726 2.092-1.717 3.115-.213.23-.292.57-.316.748 0 0-1.461 0-1.809.03 0 0-.348-.03-.342-.255.007-.222.2-.279.371-.279.176-.001.903.016 1.293-.282zm-9.631.436c-1.245-.703-2.462-1.782-3.561-3.507l-.196-.34c.299.137.686.044.686.044.019.028.065.105.091.148 1.022 1.553 2.156 2.534 3.315 3.174l-.335.481zm1.54.073c.942.354 1.88.537 2.772.677a8.175 8.175 0 001.688.096.53.53 0 00.045.306s-.109.129-.109.275a8.662 8.662 0 01-1.712-.104c-.97-.154-1.996-.357-3.024-.756l.34-.494zm6.689.479c.172-.028.719-.014 1.047.038.359.059.769.135.812.338.041.193-.089.4-.273.693-.113.18-.378.076-.529.02-.147-.057-.989-.521-1.126-.674-.136-.155-.192-.37.069-.415zm-.864.573a.627.627 0 01.542-.057c.226.088 1.059.593 1.115.829.055.235-.058.356-.187.408a1.637 1.637 0 01-.399.114.63.63 0 01-.517-.24c-.106-.135-.496-.62-.554-.729-.054-.108-.084-.267 0-.325zm-.099.53c.12.138.457.56.497.627.037.07-.02.176-.124.166-.107-.01-.679-.072-1.005-.304-.329-.23-.55-.674-.322-.836.224-.165.575-.091.954.347zm-.185-1.282c.109-.026.542-.14.636.007.118.182.033.38-.302.546-.335.166-.968.298-1.094.12-.124-.18.051-.484.76-.673z" fill="#0055A6"/></svg>