<svg width="167" height="31" fill="none" xmlns="http://www.w3.org/2000/svg"><path d="M79.076 13.462v-1.114c-1.574-.043-2.753-.478-3.599-1.317a4.093 4.093 0 01-.937-1.387 4.17 4.17 0 01-.31-1.655c0-2.186 1.53-4.3 4.846-4.385v-.956h1.573v.956c3.316.085 4.861 2.17 4.861 4.372s-1.546 4.284-4.86 4.372v1.114h-1.574zm0-8.439c-1.078 0-1.884.305-2.44.868A3.146 3.146 0 0075.832 8c0 .781.288 1.534.806 2.108.555.562 1.361.84 2.439.851V5.023zm1.573 5.935c1.078 0 1.884-.289 2.438-.851.528-.57.822-1.324.822-2.108s-.294-1.539-.822-2.108c-.554-.563-1.36-.852-2.438-.868v5.935zm12.165 2.158V2.982h4.264a3.379 3.379 0 012.422.823 2.74 2.74 0 01.892 2.114 2.9 2.9 0 01-.214 1.186 2.836 2.836 0 01-.677.988c-.67.592-1.54.893-2.423.836h-2.706v4.187h-1.558zm1.573-5.625h2.58c1.18 0 1.868-.55 1.868-1.524 0-.972-.692-1.502-1.867-1.502h-2.58V7.49zm18.489 5.814a4.784 4.784 0 01-1.967-.365 4.877 4.877 0 01-1.659-1.142 5.585 5.585 0 01-1.432-3.743c0-1.387.511-2.724 1.432-3.743a5.106 5.106 0 013.626-1.521c1.357 0 2.66.546 3.626 1.52a5.541 5.541 0 011.447 3.744 5.54 5.54 0 01-1.447 3.743 4.875 4.875 0 01-1.659 1.142 4.781 4.781 0 01-1.967.365zm0-1.49c.461.007.919-.085 1.344-.27a3.301 3.301 0 001.122-.804 3.842 3.842 0 001.007-2.692 3.814 3.814 0 00-.242-1.443 3.738 3.738 0 00-.765-1.237 3.392 3.392 0 00-1.124-.803 3.325 3.325 0 00-2.684 0c-.424.187-.807.46-1.124.803-.33.357-.588.778-.758 1.238-.17.46-.25.95-.234 1.442a3.83 3.83 0 00.992 2.692c.314.346.696.62 1.121.805.425.185.883.276 1.345.268zm12.563 1.301V2.981h4.503c1.774 0 2.918.925 2.918 2.492a2.17 2.17 0 01-.333 1.256c-.236.373-.58.662-.984.826.614.11 1.168.446 1.557.945.389.499.586 1.126.554 1.763.015.393-.059.784-.216 1.142a2.56 2.56 0 01-.688.927 3.568 3.568 0 01-2.439.784h-4.872zm1.573-6.052h2.678c1.035 0 1.644-.462 1.644-1.318 0-.856-.609-1.302-1.644-1.302h-2.678v2.62zm0 4.59h3.017c1.203 0 1.939-.595 1.939-1.607 0-1.013-.708-1.564-1.939-1.564h-3.033l.016 3.17zm19.119 1.65a4.78 4.78 0 01-1.968-.364 4.875 4.875 0 01-1.659-1.142 5.59 5.59 0 01-1.431-3.743 5.59 5.59 0 011.431-3.743 5.111 5.111 0 013.627-1.52c1.357 0 2.659.546 3.626 1.52a5.54 5.54 0 011.447 3.743 5.54 5.54 0 01-1.447 3.743 4.873 4.873 0 01-1.659 1.143 4.772 4.772 0 01-1.967.364zm0-1.49c.461.008.919-.084 1.344-.269a3.302 3.302 0 001.122-.804 3.842 3.842 0 001.007-2.692 3.814 3.814 0 00-.242-1.443 3.755 3.755 0 00-.765-1.237 3.404 3.404 0 00-1.124-.802 3.333 3.333 0 00-2.685 0 3.39 3.39 0 00-1.123.802 3.72 3.72 0 00-.758 1.238c-.17.46-.249.95-.233 1.442-.03.996.326 1.963.991 2.692a3.243 3.243 0 002.466 1.073zm12.472 1.302V2.982h1.573v7.442l5.455-7.442H167v10.134h-1.573v-7.47l-5.507 7.47h-1.317zM160.262 0h1.302a1.16 1.16 0 00.188.688 1.116 1.116 0 001.02.498 1.12 1.12 0 00.678-.17A1.172 1.172 0 00163.987 0h1.306c0 1.463-1.078 2.387-2.509 2.387-1.432 0-2.505-.924-2.522-2.387zM41.672 30.813V20.68h8.063v10.135h-1.559v-8.673h-4.944v8.672h-1.561zm16.797 0V20.68h4.268a3.38 3.38 0 012.423.803c.292.263.523.59.678.955.154.365.227.761.214 1.16.013.406-.06.81-.215 1.186a2.836 2.836 0 01-.677.987c-.67.592-1.54.892-2.423.836h-2.718v4.188l-1.55.02zm1.574-5.645h2.576c1.18 0 1.872-.55 1.872-1.523 0-.973-.696-1.503-1.872-1.503h-2.6l.024 3.026zm19.763 5.83a4.801 4.801 0 01-1.968-.364 4.893 4.893 0 01-1.662-1.14 5.6 5.6 0 01-1.427-3.742 5.6 5.6 0 011.427-3.743 5.116 5.116 0 013.628-1.52c1.358 0 2.66.546 3.629 1.52a5.553 5.553 0 011.443 3.743c0 1.39-.516 2.728-1.443 3.744a4.89 4.89 0 01-1.66 1.139 4.785 4.785 0 01-1.967.363zm0-1.49c.462.008.92-.084 1.344-.268a3.304 3.304 0 001.122-.802 3.839 3.839 0 001.003-2.692 3.816 3.816 0 00-.24-1.443 3.75 3.75 0 00-.763-1.238 3.39 3.39 0 00-1.123-.802 3.326 3.326 0 00-2.685 0c-.424.187-.806.46-1.124.803a3.73 3.73 0 00-.759 1.238c-.17.46-.249.95-.232 1.442a3.81 3.81 0 00.991 2.692 3.29 3.29 0 001.122.803 3.24 3.24 0 001.344.267zm13.008 1.305V20.68h4.264a3.38 3.38 0 012.422.803 2.74 2.74 0 01.892 2.114 2.9 2.9 0 01-.214 1.187 2.836 2.836 0 01-.677.987c-.67.592-1.54.892-2.423.836h-2.706v4.188l-1.558.02zm1.573-5.645h2.58c1.18 0 1.868-.55 1.868-1.523 0-.973-.692-1.503-1.867-1.503h-2.58v3.026zm13.263 5.645V20.68h1.573v3.504h2.222c.99-.06 1.964.271 2.722.924.476.467.801 1.071.933 1.732s.065 1.348-.193 1.968a3.332 3.332 0 01-.74 1.095 3.844 3.844 0 01-2.706.911h-3.811zm1.573-1.462h2.14c1.4 0 2.21-.68 2.21-1.84 0-1.162-.837-1.865-2.21-1.865h-2.14v3.705zm7.284-8.672h1.574v10.135h-1.574V20.679zm8.932 10.134V20.68h4.503c1.774 0 2.918.924 2.918 2.488.02.444-.097.884-.333 1.257-.236.374-.58.663-.984.828.614.11 1.168.446 1.557.945.389.499.586 1.126.554 1.763a2.63 2.63 0 01-.217 1.142 2.576 2.576 0 01-.687.927 3.569 3.569 0 01-2.439.785h-4.872zm1.573-6.052h2.678c1.035 0 1.644-.465 1.644-1.317 0-.852-.609-1.302-1.644-1.302h-2.678v2.62zm0 4.59h3.017c1.203 0 1.939-.595 1.939-1.607 0-1.013-.708-1.564-1.939-1.564h-3.033l.016 3.17zM.397 5.095V3.64L0 3.83v-.49l.456-.237h.437v1.992H.398zm3.634 0V3.64l-.397.19v-.49l.456-.237h.433v1.992h-.492zM.397 8.74V7.29L0 7.473v-.49l.456-.237h.437V8.74H.398zm3.634 0V7.29l-.397.184v-.49l.456-.237h.433V8.74h-.492zm7.383.036a.775.775 0 01-.472-.149.897.897 0 01-.295-.381 1.34 1.34 0 01-.095-.502 1.072 1.072 0 01.394-.885.777.777 0 01.472-.152.755.755 0 01.468.152.858.858 0 01.295.403c.066.158.098.33.094.501a1.072 1.072 0 01-.393.885.749.749 0 01-.468.148v-.02zm.264-.615a.817.817 0 00.094-.402.78.78 0 00-.094-.401.286.286 0 00-.264-.169.295.295 0 00-.268.169.782.782 0 00-.094.401c-.003.14.03.279.094.402a.31.31 0 00.268.17.294.294 0 00.264-.17zM7.725 5.095V3.64l-.397.19v-.49l.456-.237h.437v1.992h-.496zm3.619 0V3.64l-.398.19v-.49l.456-.237h.433v1.992h-.492zm3.732.036a.775.775 0 01-.468-.148.898.898 0 01-.295-.402 1.274 1.274 0 01-.095-.506 1.082 1.082 0 01.394-.885.78.78 0 01.468-.148.778.778 0 01.472.148.884.884 0 01.295.403c.064.158.096.327.094.498a1.084 1.084 0 01-.393.888.778.778 0 01-.472.149v.003zm.268-.639a.892.892 0 000-.803.295.295 0 00-.53 0 .89.89 0 00-.001.803.29.29 0 00.263.164.293.293 0 00.268-.164zm3.217.603V3.64l-.402.19v-.49l.457-.237h.436v1.992h-.491zm3.692 0V3.64l-.397.19v-.49l.456-.237h.436v1.992h-.494zM14.927 8.74V7.29l-.398.184v-.49l.457-.237h.436V8.74h-.496zm-7.202 0V7.29l-.397.184v-.49l.456-.237h.437V8.74h-.496zm11.063.036a.775.775 0 01-.472-.149.897.897 0 01-.295-.381 1.34 1.34 0 01-.086-.49 1.071 1.071 0 01.393-.885.772.772 0 01.472-.152.75.75 0 01.468.152.853.853 0 01.295.403c.066.158.1.33.095.502a1.072 1.072 0 01-.394.884.75.75 0 01-.468.148l-.008-.031zm.272-.603a.819.819 0 00.094-.401.782.782 0 00-.094-.402.294.294 0 00-.264-.17.294.294 0 00-.267.17.784.784 0 00-.095.402.82.82 0 00.095.401.31.31 0 00.267.17.295.295 0 00.264-.17zm3.265.603a.775.775 0 01-.472-.149.929.929 0 01-.295-.381 1.338 1.338 0 01-.082-.49 1.072 1.072 0 01.393-.885.806.806 0 01.944 0 .854.854 0 01.295.403c.064.158.096.33.095.501a1.072 1.072 0 01-.394.885.778.778 0 01-.472.148l-.012-.031zm.276-.603a.761.761 0 00.094-.401.745.745 0 00-.094-.402.283.283 0 00-.264-.169.286.286 0 00-.263.169.746.746 0 00-.095.402c-.006.14.027.28.095.401a.303.303 0 00.263.17.286.286 0 00.264-.17zm-7.682 4.248a.745.745 0 01-.469-.153.91.91 0 01-.299-.401 1.325 1.325 0 01-.094-.503 1.076 1.076 0 01.393-.884.745.745 0 01.468-.153.774.774 0 01.472.153.87.87 0 01.295.382c.064.16.096.33.095.502a1.072 1.072 0 01-.394.884.781.781 0 01-.472.153l.004.02zm.262-.647a.76.76 0 00.095-.402.752.752 0 00-.095-.402.292.292 0 00-.263-.169.286.286 0 00-.263.17.792.792 0 00-.095.402.823.823 0 00.095.401.287.287 0 00.263.168.282.282 0 00.263-.168zm-3.79.607v-1.45l-.398.188v-.494l.456-.238h.433v1.993h-.491v.001zm.063 7.402a.775.775 0 01-.472-.149.93.93 0 01-.295-.382 1.34 1.34 0 01-.095-.502 1.085 1.085 0 01.393-.888.825.825 0 01.944 0 .922.922 0 01.295.402 1.3 1.3 0 01.095.502 1.079 1.079 0 01-.393.884.779.779 0 01-.472.149v-.017.001zm.263-.62a.892.892 0 000-.803.29.29 0 00-.418-.12.3.3 0 00-.109.12.892.892 0 000 .804.3.3 0 00.264.164.282.282 0 00.263-.164zm-3.992.583v-1.454l-.397.19v-.491l.456-.238h.437v1.993h-.496zm-3.694 0v-1.454l-.397.19v-.491l.456-.238h.433v1.993h-.492zm7.423 7.318a.775.775 0 01-.472-.148.93.93 0 01-.295-.383 1.34 1.34 0 01-.095-.502 1.085 1.085 0 01.393-.887.825.825 0 01.944 0 .917.917 0 01.295.401c.065.16.097.33.095.503a1.079 1.079 0 01-.393.883.778.778 0 01-.472.15v-.017zm.263-.619a.892.892 0 000-.803.282.282 0 00-.264-.165.292.292 0 00-.263.164.892.892 0 000 .804.29.29 0 00.263.165.283.283 0 00.264-.165zm14.36.62a.775.775 0 01-.472-.15.896.896 0 01-.295-.381 1.337 1.337 0 01-.094-.503 1.084 1.084 0 01.393-.887.773.773 0 01.472-.15.77.77 0 01.468.15.883.883 0 01.295.401c.068.158.101.33.099.503a1.086 1.086 0 01-.394.883c-.136.1-.3.152-.468.15l-.004-.017zm.268-.62a.891.891 0 000-.803.29.29 0 00-.527 0 .863.863 0 000 .803.299.299 0 00.263.166.29.29 0 00.264-.166zm-11.347-3.018a.752.752 0 01-.468-.148.897.897 0 01-.295-.382 1.266 1.266 0 01-.094-.502 1.084 1.084 0 01.392-.889.78.78 0 01.469-.148.78.78 0 01.471.148.884.884 0 01.295.403 1.3 1.3 0 01.095.502 1.071 1.071 0 01-.393.884.778.778 0 01-.472.149v-.017zm.267-.619a.818.818 0 00.095-.401.781.781 0 00-.095-.402.299.299 0 00-.267-.169.286.286 0 00-.264.169.783.783 0 00-.094.402.82.82 0 00.094.401.294.294 0 00.264.169.298.298 0 00.267-.169zm-7.54 4.22v-1.45l-.397.184v-.49l.456-.237h.437v1.993h-.496zm-3.694 0v-1.45l-.397.184v-.49l.456-.237h.433v1.993h-.492zm7.422 3.761a.775.775 0 01-.472-.153.93.93 0 01-.296-.381 1.327 1.327 0 01-.094-.503 1.072 1.072 0 01.393-.883.806.806 0 01.944 0c.13.097.233.229.295.381.064.16.096.33.095.502a1.073 1.073 0 01-.394.885.776.776 0 01-.471.152zm.263-.639a.76.76 0 00.095-.401.752.752 0 00-.095-.402.29.29 0 00-.263-.169.295.295 0 00-.264.169.757.757 0 00-.095.402c-.006.14.027.28.095.401a.286.286 0 00.264.169.283.283 0 00.263-.169zm3.21.599v-1.45l-.397.188v-.494l.457-.237h.436v1.993h-.496zm-7.2 0v-1.45l-.398.188v-.494l.456-.237h.437v1.993h-.496zm-3.695 0v-1.45l-.397.188v-.494l.456-.237h.433v1.993h-.492zM18.56 12.38v-1.45l-.402.188v-.494l.457-.238h.436v1.993h-.491v.001zm3.764.04a.775.775 0 01-.472-.153.931.931 0 01-.295-.401 1.326 1.326 0 01-.082-.495 1.074 1.074 0 01.09-.491c.069-.154.173-.289.303-.393a.806.806 0 01.944 0 .873.873 0 01.295.382c.064.159.096.33.095.502a1.072 1.072 0 01-.394.884.777.777 0 01-.472.153l-.012.012zm.276-.651a.761.761 0 00.094-.402.753.753 0 00-.094-.402.283.283 0 00-.264-.169.295.295 0 00-.264.169.75.75 0 00-.094.402c-.006.14.027.28.095.402a.295.295 0 00.263.169.291.291 0 00.264-.169zm3.476-2.994a.775.775 0 01-.472-.149.897.897 0 01-.295-.381 1.339 1.339 0 01-.094-.502 1.071 1.071 0 01.393-.885.777.777 0 01.472-.152.755.755 0 01.468.152.858.858 0 01.295.403c.068.158.101.329.098.501a1.075 1.075 0 01-.393.885.75.75 0 01-.468.148l-.004-.02zm.268-.615a.82.82 0 00.094-.402.782.782 0 00-.094-.401.286.286 0 00-.527 0 .745.745 0 00-.1.401.76.76 0 00.1.402.286.286 0 00.527 0zm-.268 4.26a.775.775 0 01-.472-.153.9.9 0 01-.295-.401 1.327 1.327 0 01-.094-.503 1.07 1.07 0 01.393-.884.777.777 0 01.472-.153.756.756 0 01.468.153.879.879 0 01.295.382c.067.158.1.329.098.502a1.077 1.077 0 01-.393.884.752.752 0 01-.468.153l-.004.02zm.268-.659a.826.826 0 00.094-.402.793.793 0 00-.094-.402.286.286 0 00-.527 0 .751.751 0 00-.1.402c-.004.141.03.28.1.402a.295.295 0 00.263.172.295.295 0 00.264-.172zm-.268 4.3a.775.775 0 01-.472-.153.874.874 0 01-.295-.402 1.327 1.327 0 01-.094-.502 1.071 1.071 0 01.393-.884.776.776 0 01.472-.153.752.752 0 01.468.153.877.877 0 01.295.381c.067.16.1.33.098.503a1.075 1.075 0 01-.393.884.752.752 0 01-.468.153l-.004.02zm.268-.66a.796.796 0 00.094-.401.818.818 0 00-.094-.402.295.295 0 00-.264-.172.295.295 0 00-.264.172.764.764 0 00-.098.402c-.005.14.029.28.099.402a.295.295 0 00.263.171.286.286 0 00.264-.171zm-.268 4.381a.775.775 0 01-.472-.15.897.897 0 01-.295-.38 1.337 1.337 0 01-.094-.503 1.083 1.083 0 01.393-.888.777.777 0 01.472-.149.774.774 0 01.468.149.884.884 0 01.295.402c.068.158.101.329.099.502.007.17-.024.337-.093.491a1.06 1.06 0 01-.301.393c-.136.1-.3.151-.468.149l-.004-.017v.001zm.268-.62a.892.892 0 000-.803.3.3 0 00-.264-.166.3.3 0 00-.264.166.863.863 0 000 .804.29.29 0 00.527 0zm-.39-14.032a.775.775 0 01-.468-.148.9.9 0 01-.295-.402 1.274 1.274 0 01-.095-.506 1.082 1.082 0 01.393-.885.779.779 0 01.469-.148.778.778 0 01.471.148.89.89 0 01.296.403c.063.158.095.327.094.498a1.084 1.084 0 01-.394.888.777.777 0 01-.472.149v.003zm.267-.639a.892.892 0 000-.803.304.304 0 00-.266-.165.295.295 0 00-.265.165.89.89 0 000 .803.294.294 0 00.531 0zM.397 12.381v-1.45L0 11.118v-.494l.456-.238h.437v1.993H.398v.001zm3.634 0v-1.45l-.397.188v-.494l.456-.238h.433v1.993h-.492v.001zm3.694 0v-1.45l-.397.188v-.494l.456-.238h.437v1.993h-.496v.001zm-7.328 3.64v-1.45L0 14.76v-.494l.456-.238h.437v1.993H.398zm0 3.725v-1.454l-.397.19v-.491l.456-.238h.437v1.993H.398zm3.634-3.725v-1.45l-.397.189v-.494l.456-.238h.433v1.993h-.492zm3.694 0v-1.45l-.397.189v-.494l.456-.238h.437v1.993h-.496zM.397 23.395v-1.45L0 22.133v-.493l.456-.234h.437v1.99H.398zm0 3.633v-1.45L0 25.762v-.49l.456-.238h.437v1.993H.398v.001zm0 3.701v-1.45L0 29.463v-.49l.456-.238h.437v1.993H.398v.001zm18.58.036a.775.775 0 01-.471-.148.897.897 0 01-.296-.383 1.34 1.34 0 01-.094-.502 1.072 1.072 0 01.393-.884.776.776 0 01.472-.152.755.755 0 01.468.152.848.848 0 01.295.382c.067.159.1.33.095.502a1.049 1.049 0 01-.393.884.75.75 0 01-.469.15zm.264-.635a.82.82 0 00.095-.402.782.782 0 00-.095-.401.287.287 0 00-.42-.123.304.304 0 00-.11.123.782.782 0 00-.095.401.817.817 0 00.094.402.31.31 0 00.267.169.294.294 0 00.264-.169zm3.28.635a.775.775 0 01-.472-.148.898.898 0 01-.295-.383 1.34 1.34 0 01-.095-.502 1.074 1.074 0 01.091-.491c.069-.154.172-.288.303-.393a.776.776 0 01.472-.152.755.755 0 01.468.152.849.849 0 01.295.382c.067.158.1.33.098.502a1.076 1.076 0 01-.393.885.75.75 0 01-.468.148h-.005zm.267-.635a.82.82 0 00.095-.402.782.782 0 00-.095-.401.295.295 0 00-.263-.172.295.295 0 00-.264.172.744.744 0 00-.099.401c-.004.141.03.28.1.402a.286.286 0 00.527 0zm-4.227-3.102v-1.45l-.402.184v-.49l.457-.237h.436v1.993h-.491zm-3.634 0v-1.45l-.398.184v-.49l.457-.237h.436v1.993h-.496zm7.326 0v-1.45l-.397.184v-.49l.456-.237h.436v1.993h-.494zm3.552 3.701v-1.45l-.398.184v-.49l.457-.237h.437v1.993h-.496zm-7.22-7.302a.776.776 0 01-.472-.148.897.897 0 01-.295-.382 1.339 1.339 0 01-.094-.502 1.063 1.063 0 01.393-.888.78.78 0 01.471-.15.776.776 0 01.469.15.885.885 0 01.295.402c.066.158.099.329.094.502a1.073 1.073 0 01-.393.884.75.75 0 01-.468.149v-.017zm.263-.619a.815.815 0 00.095-.401.779.779 0 00-.095-.402.286.286 0 00-.264-.169.293.293 0 00-.267.169.783.783 0 00-.094.402.82.82 0 00.094.401.31.31 0 00.268.17.303.303 0 00.264-.169zm3.405.58v-1.451l-.397.184v-.49l.456-.237h.436v1.993h-.494zm-3.692-3.642v-1.454l-.402.19v-.491l.457-.238h.436v1.993h-.491zm-3.634 0v-1.454l-.398.19v-.491l.457-.238h.436v1.993h-.496zm7.326 0v-1.454l-.397.19v-.491l.456-.238h.436v1.993h-.494zm-3.472-3.684a.775.775 0 01-.472-.153.875.875 0 01-.295-.402 1.327 1.327 0 01-.095-.502 1.072 1.072 0 01.393-.884.776.776 0 01.472-.153.752.752 0 01.469.153.873.873 0 01.295.381c.065.16.097.33.094.503a1.09 1.09 0 01-.091.491 1.05 1.05 0 01-.303.393.753.753 0 01-.467.153v.02zm.263-.66a.793.793 0 00.094-.401.819.819 0 00-.094-.402.286.286 0 00-.264-.169.303.303 0 00-.268.169.817.817 0 00-.093.402.787.787 0 00.094.402.304.304 0 00.185.156.293.293 0 00.346-.156zm3.28.66a.775.775 0 01-.471-.153.875.875 0 01-.295-.402 1.33 1.33 0 01-.094-.502 1.072 1.072 0 01.393-.884.776.776 0 01.471-.153.75.75 0 01.469.153.873.873 0 01.295.381c.067.16.1.33.099.503a1.076 1.076 0 01-.394.884.752.752 0 01-.469.153l-.003.02zm.269-.66a.787.787 0 00.094-.401.817.817 0 00-.094-.402.296.296 0 00-.108-.125.286.286 0 00-.312 0 .295.295 0 00-.107.125.765.765 0 00-.1.402c-.004.14.03.28.1.402a.295.295 0 00.263.171.286.286 0 00.264-.171zm-11.647.62V14.57l-.397.189v-.494l.456-.238h.436v1.993h-.495zm4.011.04a.775.775 0 01-.472-.153.874.874 0 01-.295-.402 1.326 1.326 0 01-.095-.502 1.074 1.074 0 01.394-.884.806.806 0 01.944 0c.13.097.232.23.295.381.063.16.096.33.094.503a1.072 1.072 0 01-.393.884.777.777 0 01-.472.153v.02zm.263-.66a.794.794 0 00.095-.401.817.817 0 00-.095-.402.291.291 0 00-.263-.169.286.286 0 00-.264.17.761.761 0 00-.094.4.765.765 0 00.095.403.287.287 0 00.264.169.282.282 0 00.262-.17zm10.735 8.025a.752.752 0 01-.468-.148.898.898 0 01-.295-.382 1.266 1.266 0 01-.095-.502 1.084 1.084 0 01.393-.889.783.783 0 01.469-.148.779.779 0 01.471.148.885.885 0 01.296.403c.063.159.095.33.094.502a1.072 1.072 0 01-.393.884.778.778 0 01-.472.149v-.017zm.267-.619a.818.818 0 00.095-.401.781.781 0 00-.095-.402.29.29 0 00-.531 0 .781.781 0 00-.094.402.823.823 0 00.094.401.29.29 0 00.531 0zm-22.191.587v-1.45l-.397.188v-.493l.456-.234h.433v1.99h-.492zm3.694 0v-1.45l-.397.188v-.493l.456-.234h.437v1.99h-.496zm3.689.032a.775.775 0 01-.472-.152.874.874 0 01-.295-.382 1.327 1.327 0 01-.095-.502 1.072 1.072 0 01.394-.885.772.772 0 01.472-.151.751.751 0 01.468.151c.131.097.234.23.295.383.065.158.098.33.094.502a1.048 1.048 0 01-.393.884.752.752 0 01-.468.153zm.264-.639a.785.785 0 00.094-.402.817.817 0 00-.094-.401.295.295 0 00-.264-.169.295.295 0 00-.268.169.82.82 0 00-.094.402.791.791 0 00.094.402.306.306 0 00.185.156.294.294 0 00.238-.033.295.295 0 00.109-.123zm37.942-7.502v-2.17h-7.949V2.981h1.562v8.672h4.873V2.982h1.557v8.671h1.432v3.633H49.62zm8.85-2.17V2.981h1.56v7.443l5.456-7.442h1.361v10.134h-1.562v-7.47l-5.482 7.47h-1.334z" fill="#fff"/></svg>