<svg viewBox="0 0 108 37" fill="none" xmlns="http://www.w3.org/2000/svg"><path fill-rule="evenodd" clip-rule="evenodd" d="M2.3 2.3h31.954v31.954H2.3V2.3zM0 36.554V0h36.554v36.554H0zM80.605 6.646h2.247v8.746a5.074 5.074 0 011.335-.842c.448-.19.901-.286 1.36-.286.895 0 1.65.305 2.264.915.525.529.787 1.305.787 2.33v5.877h-2.23v-3.9c0-1.029-.05-1.727-.15-2.092-.099-.365-.27-.637-.513-.817-.238-.18-.534-.27-.888-.27-.458 0-.854.15-1.185.45-.326.3-.553.708-.68 1.226-.067.267-.1.877-.1 1.83v3.573h-2.247V6.646zm-34.94 7.847h-.803v1.896h.804v11.027h2.263V16.389h1.435v-1.896h-1.435l.009-1.112c0-.256.044-.425.132-.507.122-.109.315-.163.58-.163.21 0 .479.046.805.139v-1.7c-.591-.213-1.122-.319-1.592-.319-.652 0-1.158.145-1.517.433-.354.284-.561.67-.622 1.16-.033.213-.053.903-.058 2.069zm11.667.4a4.813 4.813 0 00-2.397-.629c-1.177 0-2.219.403-3.125 1.21-1.034.926-1.55 2.084-1.55 3.473 0 1.297.455 2.4 1.367 3.31.918.905 2.023 1.357 3.317 1.357.879 0 1.683-.204 2.412-.613a4.544 4.544 0 001.725-1.716c.426-.73.639-1.515.639-2.354 0-.834-.21-1.61-.63-2.33a4.573 4.573 0 00-1.758-1.708zm-4.121 2.199c.47-.485 1.056-.727 1.758-.727.718 0 1.307.24 1.766.719.464.474.696 1.092.696 1.855 0 .763-.235 1.387-.705 1.872-.47.485-1.058.727-1.766.727-.707 0-1.293-.24-1.757-.719-.46-.48-.689-1.106-.689-1.88 0-.752.233-1.367.697-1.847zm7.835-2.6h1.94v1.12c.21-.44.49-.776.838-1.005a2.04 2.04 0 011.144-.343c.293 0 .6.076.92.229l-.704 1.92c-.266-.13-.484-.196-.656-.196-.348 0-.643.213-.887.638-.237.425-.356 1.259-.356 2.501l.008.433v3.597h-2.247v-8.893zm7.18 0h-2.213l3.25 8.894h1.418l1.981-5.068 1.924 5.068h1.434l3.292-8.893h-2.23l-1.816 5.002-1.916-5.002H72l-1.957 5.06-1.816-5.06zm24.477-3.236a1.387 1.387 0 00-1.02-.425 1.4 1.4 0 00-1.02.417 1.36 1.36 0 00-.423 1.005c0 .409.14.758.423 1.046a1.42 1.42 0 001.036.426c.393 0 .73-.14 1.012-.417.282-.284.423-.624.423-1.022 0-.403-.144-.746-.431-1.03zm.116 3.237h-2.272v8.893h2.272v-8.893zm1.815-7.847h2.264v16.74h-2.264V6.646zm6.086 12.939h7.272l.008-.425c0-1.471-.445-2.654-1.335-3.547-.89-.9-2.045-1.349-3.466-1.349-1.337 0-2.451.45-3.341 1.349-.885.893-1.327 2.018-1.327 3.375 0 1.324.445 2.428 1.335 3.31.89.878 2.043 1.317 3.458 1.317.912 0 1.699-.159 2.363-.475.663-.321 1.232-.814 1.708-1.479l-1.907-.883a3.04 3.04 0 01-2.181.875c-.707 0-1.291-.185-1.749-.556-.454-.376-.733-.88-.838-1.512zm4.113-2.967c.442.31.738.714.887 1.21h-4.9c.254-.55.53-.935.829-1.153.475-.349 1.028-.523 1.658-.523.58 0 1.089.155 1.526.466zM9.969 9.969h13.293v1.911H9.969V9.97zm18.277 4.985H13.292v1.91h14.954v-1.91zm-14.954 4.985h14.954v1.91H13.292v-1.91zm9.97 4.984H9.969v1.91h13.293v-1.91z" fill="#0055A6"/></svg>