<svg viewBox="0 0 196 67" fill="none" xmlns="http://www.w3.org/2000/svg"><path fill-rule="evenodd" clip-rule="evenodd" d="M4.174 4.216h57.99v58.568H4.174V4.216zM0 0h66.338v67H0V0zm146.284 12.182h4.078v16.03c.802-.69 1.61-1.203 2.422-1.543a6.196 6.196 0 012.468-.524c1.625 0 2.995.559 4.108 1.678.953.968 1.429 2.392 1.429 4.27v10.77h-4.047v-7.145c0-1.888-.09-3.166-.271-3.836-.181-.669-.492-1.168-.933-1.498-.431-.33-.968-.494-1.61-.494-.833 0-1.55.275-2.152.824-.592.55-1.003 1.298-1.234 2.247-.12.49-.18 1.608-.18 3.356v6.547h-4.078V12.182zm-63.41 14.382h-1.459v3.476h1.46v20.21h4.108V30.04h2.603v-3.476h-2.603l.015-2.037c0-.47.08-.78.24-.93.221-.199.572-.299 1.054-.299.381 0 .868.085 1.46.255v-3.116c-1.074-.39-2.037-.585-2.89-.585-1.183 0-2.101.265-2.753.794-.642.52-1.018 1.229-1.129 2.128-.06.39-.095 1.653-.105 3.79zm21.172.734a8.662 8.662 0 00-4.348-1.153c-2.137 0-4.028.739-5.673 2.217-1.876 1.698-2.814 3.82-2.814 6.367 0 2.377.828 4.4 2.483 6.067 1.665 1.658 3.671 2.487 6.019 2.487 1.595 0 3.054-.374 4.379-1.123a8.285 8.285 0 003.129-3.146 8.483 8.483 0 001.159-4.315 8.38 8.38 0 00-1.144-4.27c-.762-1.318-1.825-2.362-3.19-3.13zm-7.478 4.03c.853-.889 1.916-1.333 3.19-1.333 1.304 0 2.372.44 3.205 1.318.843.87 1.264 2.003 1.264 3.4 0 1.4-.426 2.543-1.279 3.432-.853.889-1.921 1.333-3.205 1.333s-2.347-.44-3.19-1.318c-.833-.88-1.25-2.028-1.25-3.446 0-1.378.422-2.507 1.265-3.386zm14.22-4.764h3.521v2.052c.381-.808.887-1.423 1.519-1.842a3.68 3.68 0 012.077-.63c.532 0 1.088.14 1.67.42l-1.279 3.52c-.481-.239-.878-.359-1.189-.359-.632 0-1.168.39-1.61 1.169-.431.779-.647 2.307-.647 4.584l.015.794v6.592h-4.077v-16.3zm13.03 0h-4.017l5.898 16.3h2.573l3.597-9.289 3.491 9.289h2.603l5.974-16.3h-4.048l-3.295 9.169-3.476-9.169h-2.453l-3.551 9.273-3.296-9.273zm44.42-5.933a2.505 2.505 0 00-1.851-.779 2.53 2.53 0 00-1.851.764 2.508 2.508 0 00-.767 1.843c0 .75.256 1.389.767 1.918.522.52 1.149.779 1.881.779.712 0 1.324-.255 1.836-.764.512-.52.767-1.144.767-1.873 0-.739-.26-1.368-.782-1.887zm3.506-8.449h4.108v30.682h-4.108V12.182zm11.045 23.715h13.196l.015-.779c0-2.696-.808-4.864-2.423-6.502-1.615-1.647-3.711-2.471-6.289-2.471-2.428 0-4.449.824-6.064 2.471-1.605 1.639-2.408 3.7-2.408 6.188 0 2.427.808 4.45 2.423 6.067 1.615 1.608 3.706 2.412 6.274 2.412 1.656 0 3.085-.29 4.289-.869 1.204-.589 2.237-1.493 3.1-2.711l-3.461-1.618c-1.104 1.068-2.423 1.603-3.958 1.603-1.284 0-2.342-.34-3.175-1.019-.822-.69-1.329-1.613-1.519-2.771zm7.463-5.438c.802.57 1.339 1.309 1.61 2.217h-8.893c.462-1.008.963-1.712 1.505-2.112.863-.64 1.866-.959 3.009-.959 1.054 0 1.976.285 2.769.854zM18.092 18.273h24.123v3.502H18.092v-3.502zm33.17 9.136h-27.14v3.502H51.26V27.41zm-27.139 9.136h27.138v3.503H24.123v-3.503zm18.092 9.137H18.092v3.502h24.123v-3.502zM168.45 26.564h-4.123v16.3h4.123v-16.3z" fill="#fff"/></svg>